<mxfile host="app.diagrams.net" modified="2021-08-22T22:27:29.266Z" agent="5.0 (Windows NT 10.0; Win64; x64) AppleWebKit/537.36 (KHTML, like Gecko) Chrome/92.0.4515.131 Safari/537.36 OPR/78.0.4093.147" etag="x9lvpcLn8n5jO9lOzcn8" version="14.9.6" type="github" pages="2">
  <diagram id="2BOiLiS42mKvDHtKThiZ" name="Page-1">
    <mxGraphModel dx="1280" dy="486" grid="1" gridSize="10" guides="1" tooltips="1" connect="1" arrows="1" fold="1" page="1" pageScale="1" pageWidth="850" pageHeight="1100" math="0" shadow="0">
      <root>
        <mxCell id="0" />
        <mxCell id="1" parent="0" />
        <mxCell id="DCRlsVrrki1HG5qFUC6k-1" value="Google" style="rounded=1;whiteSpace=wrap;html=1;" vertex="1" parent="1">
          <mxGeometry x="30" y="100" width="120" height="60" as="geometry" />
        </mxCell>
        <mxCell id="DCRlsVrrki1HG5qFUC6k-2" value="&lt;font style=&quot;font-size: 16px&quot;&gt;KeyGenius Search Engine Lisner Autopilote&lt;/font&gt;" style="text;html=1;strokeColor=none;fillColor=none;align=center;verticalAlign=middle;whiteSpace=wrap;rounded=0;" vertex="1" parent="1">
          <mxGeometry x="330" y="30" width="210" height="20" as="geometry" />
        </mxCell>
        <mxCell id="DCRlsVrrki1HG5qFUC6k-3" value="XYZ-SE" style="rounded=1;whiteSpace=wrap;html=1;" vertex="1" parent="1">
          <mxGeometry x="700" y="100" width="120" height="60" as="geometry" />
        </mxCell>
        <mxCell id="DCRlsVrrki1HG5qFUC6k-4" value="Bing" style="rounded=1;whiteSpace=wrap;html=1;" vertex="1" parent="1">
          <mxGeometry x="160" y="100" width="120" height="60" as="geometry" />
        </mxCell>
        <mxCell id="DCRlsVrrki1HG5qFUC6k-5" value="Yahoo" style="rounded=1;whiteSpace=wrap;html=1;" vertex="1" parent="1">
          <mxGeometry x="290" y="100" width="120" height="60" as="geometry" />
        </mxCell>
        <mxCell id="DCRlsVrrki1HG5qFUC6k-6" value="Amazone" style="rounded=1;whiteSpace=wrap;html=1;" vertex="1" parent="1">
          <mxGeometry x="440" y="100" width="120" height="60" as="geometry" />
        </mxCell>
        <mxCell id="DCRlsVrrki1HG5qFUC6k-7" value="Ask" style="rounded=1;whiteSpace=wrap;html=1;" vertex="1" parent="1">
          <mxGeometry x="570" y="100" width="120" height="60" as="geometry" />
        </mxCell>
        <mxCell id="DCRlsVrrki1HG5qFUC6k-44" style="edgeStyle=orthogonalEdgeStyle;rounded=0;orthogonalLoop=1;jettySize=auto;html=1;exitX=0.5;exitY=1;exitDx=0;exitDy=0;fontSize=12;entryX=0.159;entryY=0.533;entryDx=0;entryDy=0;entryPerimeter=0;startArrow=none;" edge="1" parent="1" source="DCRlsVrrki1HG5qFUC6k-41" target="DCRlsVrrki1HG5qFUC6k-42">
          <mxGeometry relative="1" as="geometry">
            <mxPoint x="200" y="551" as="targetPoint" />
            <Array as="points">
              <mxPoint x="210" y="420" />
              <mxPoint x="210" y="510" />
            </Array>
          </mxGeometry>
        </mxCell>
        <mxCell id="DCRlsVrrki1HG5qFUC6k-9" value="Listner Engine" style="label;whiteSpace=wrap;html=1;align=center;verticalAlign=bottom;spacingLeft=0;spacingBottom=4;imageAlign=center;imageVerticalAlign=top;image=img/clipart/Gear_128x128.png" vertex="1" parent="1">
          <mxGeometry x="365" y="320" width="120" height="80" as="geometry" />
        </mxCell>
        <mxCell id="DCRlsVrrki1HG5qFUC6k-34" style="edgeStyle=orthogonalEdgeStyle;rounded=0;orthogonalLoop=1;jettySize=auto;html=1;fontSize=12;entryX=0;entryY=0.75;entryDx=0;entryDy=0;" edge="1" parent="1" source="DCRlsVrrki1HG5qFUC6k-10" target="DCRlsVrrki1HG5qFUC6k-9">
          <mxGeometry relative="1" as="geometry">
            <mxPoint x="90" y="361" as="targetPoint" />
            <Array as="points">
              <mxPoint x="90" y="380" />
            </Array>
          </mxGeometry>
        </mxCell>
        <mxCell id="DCRlsVrrki1HG5qFUC6k-10" value="Users Search &#xa;Queries" style="swimlane;fontStyle=0;childLayout=stackLayout;horizontal=1;startSize=26;fillColor=none;horizontalStack=0;resizeParent=1;resizeParentMax=0;resizeLast=0;collapsible=1;marginBottom=0;fontSize=12;" vertex="1" parent="1">
          <mxGeometry x="40" y="170" width="100" height="104" as="geometry">
            <mxRectangle x="50" y="170" width="100" height="30" as="alternateBounds" />
          </mxGeometry>
        </mxCell>
        <mxCell id="DCRlsVrrki1HG5qFUC6k-11" value="Item 1" style="text;strokeColor=none;fillColor=none;align=left;verticalAlign=top;spacingLeft=4;spacingRight=4;overflow=hidden;rotatable=0;points=[[0,0.5],[1,0.5]];portConstraint=eastwest;" vertex="1" parent="DCRlsVrrki1HG5qFUC6k-10">
          <mxGeometry y="26" width="100" height="26" as="geometry" />
        </mxCell>
        <mxCell id="DCRlsVrrki1HG5qFUC6k-12" value="Item 2" style="text;strokeColor=none;fillColor=none;align=left;verticalAlign=top;spacingLeft=4;spacingRight=4;overflow=hidden;rotatable=0;points=[[0,0.5],[1,0.5]];portConstraint=eastwest;" vertex="1" parent="DCRlsVrrki1HG5qFUC6k-10">
          <mxGeometry y="52" width="100" height="26" as="geometry" />
        </mxCell>
        <mxCell id="DCRlsVrrki1HG5qFUC6k-13" value="Item 3" style="text;strokeColor=none;fillColor=none;align=left;verticalAlign=top;spacingLeft=4;spacingRight=4;overflow=hidden;rotatable=0;points=[[0,0.5],[1,0.5]];portConstraint=eastwest;" vertex="1" parent="DCRlsVrrki1HG5qFUC6k-10">
          <mxGeometry y="78" width="100" height="26" as="geometry" />
        </mxCell>
        <mxCell id="DCRlsVrrki1HG5qFUC6k-35" style="edgeStyle=orthogonalEdgeStyle;rounded=0;orthogonalLoop=1;jettySize=auto;html=1;entryX=0;entryY=0.5;entryDx=0;entryDy=0;fontSize=12;" edge="1" parent="1" source="DCRlsVrrki1HG5qFUC6k-14" target="DCRlsVrrki1HG5qFUC6k-9">
          <mxGeometry relative="1" as="geometry">
            <Array as="points">
              <mxPoint x="220" y="360" />
            </Array>
          </mxGeometry>
        </mxCell>
        <mxCell id="DCRlsVrrki1HG5qFUC6k-14" value="Users Search &#xa;Queries" style="swimlane;fontStyle=0;childLayout=stackLayout;horizontal=1;startSize=26;fillColor=none;horizontalStack=0;resizeParent=1;resizeParentMax=0;resizeLast=0;collapsible=1;marginBottom=0;fontSize=12;" vertex="1" parent="1">
          <mxGeometry x="170" y="170" width="100" height="104" as="geometry">
            <mxRectangle x="50" y="170" width="100" height="30" as="alternateBounds" />
          </mxGeometry>
        </mxCell>
        <mxCell id="DCRlsVrrki1HG5qFUC6k-15" value="Item 1" style="text;strokeColor=none;fillColor=none;align=left;verticalAlign=top;spacingLeft=4;spacingRight=4;overflow=hidden;rotatable=0;points=[[0,0.5],[1,0.5]];portConstraint=eastwest;" vertex="1" parent="DCRlsVrrki1HG5qFUC6k-14">
          <mxGeometry y="26" width="100" height="26" as="geometry" />
        </mxCell>
        <mxCell id="DCRlsVrrki1HG5qFUC6k-16" value="Item 2" style="text;strokeColor=none;fillColor=none;align=left;verticalAlign=top;spacingLeft=4;spacingRight=4;overflow=hidden;rotatable=0;points=[[0,0.5],[1,0.5]];portConstraint=eastwest;" vertex="1" parent="DCRlsVrrki1HG5qFUC6k-14">
          <mxGeometry y="52" width="100" height="26" as="geometry" />
        </mxCell>
        <mxCell id="DCRlsVrrki1HG5qFUC6k-17" value="Item 3" style="text;strokeColor=none;fillColor=none;align=left;verticalAlign=top;spacingLeft=4;spacingRight=4;overflow=hidden;rotatable=0;points=[[0,0.5],[1,0.5]];portConstraint=eastwest;" vertex="1" parent="DCRlsVrrki1HG5qFUC6k-14">
          <mxGeometry y="78" width="100" height="26" as="geometry" />
        </mxCell>
        <mxCell id="DCRlsVrrki1HG5qFUC6k-36" style="edgeStyle=orthogonalEdgeStyle;rounded=0;orthogonalLoop=1;jettySize=auto;html=1;entryX=0;entryY=0.25;entryDx=0;entryDy=0;fontSize=12;" edge="1" parent="1" source="DCRlsVrrki1HG5qFUC6k-18" target="DCRlsVrrki1HG5qFUC6k-9">
          <mxGeometry relative="1" as="geometry">
            <Array as="points">
              <mxPoint x="350" y="340" />
            </Array>
          </mxGeometry>
        </mxCell>
        <mxCell id="DCRlsVrrki1HG5qFUC6k-18" value="Users Search &#xa;Queries" style="swimlane;fontStyle=0;childLayout=stackLayout;horizontal=1;startSize=26;fillColor=none;horizontalStack=0;resizeParent=1;resizeParentMax=0;resizeLast=0;collapsible=1;marginBottom=0;fontSize=12;" vertex="1" parent="1">
          <mxGeometry x="300" y="170" width="100" height="104" as="geometry">
            <mxRectangle x="50" y="170" width="100" height="30" as="alternateBounds" />
          </mxGeometry>
        </mxCell>
        <mxCell id="DCRlsVrrki1HG5qFUC6k-19" value="Item 1" style="text;strokeColor=none;fillColor=none;align=left;verticalAlign=top;spacingLeft=4;spacingRight=4;overflow=hidden;rotatable=0;points=[[0,0.5],[1,0.5]];portConstraint=eastwest;" vertex="1" parent="DCRlsVrrki1HG5qFUC6k-18">
          <mxGeometry y="26" width="100" height="26" as="geometry" />
        </mxCell>
        <mxCell id="DCRlsVrrki1HG5qFUC6k-20" value="Item 2" style="text;strokeColor=none;fillColor=none;align=left;verticalAlign=top;spacingLeft=4;spacingRight=4;overflow=hidden;rotatable=0;points=[[0,0.5],[1,0.5]];portConstraint=eastwest;" vertex="1" parent="DCRlsVrrki1HG5qFUC6k-18">
          <mxGeometry y="52" width="100" height="26" as="geometry" />
        </mxCell>
        <mxCell id="DCRlsVrrki1HG5qFUC6k-21" value="Item 3" style="text;strokeColor=none;fillColor=none;align=left;verticalAlign=top;spacingLeft=4;spacingRight=4;overflow=hidden;rotatable=0;points=[[0,0.5],[1,0.5]];portConstraint=eastwest;" vertex="1" parent="DCRlsVrrki1HG5qFUC6k-18">
          <mxGeometry y="78" width="100" height="26" as="geometry" />
        </mxCell>
        <mxCell id="DCRlsVrrki1HG5qFUC6k-37" style="edgeStyle=orthogonalEdgeStyle;rounded=0;orthogonalLoop=1;jettySize=auto;html=1;entryX=1;entryY=0.25;entryDx=0;entryDy=0;fontSize=12;" edge="1" parent="1" source="DCRlsVrrki1HG5qFUC6k-22" target="DCRlsVrrki1HG5qFUC6k-9">
          <mxGeometry relative="1" as="geometry">
            <Array as="points">
              <mxPoint x="500" y="340" />
            </Array>
          </mxGeometry>
        </mxCell>
        <mxCell id="DCRlsVrrki1HG5qFUC6k-22" value="Users Search &#xa;Queries" style="swimlane;fontStyle=0;childLayout=stackLayout;horizontal=1;startSize=26;fillColor=none;horizontalStack=0;resizeParent=1;resizeParentMax=0;resizeLast=0;collapsible=1;marginBottom=0;fontSize=12;" vertex="1" parent="1">
          <mxGeometry x="450" y="170" width="100" height="104" as="geometry">
            <mxRectangle x="50" y="170" width="100" height="30" as="alternateBounds" />
          </mxGeometry>
        </mxCell>
        <mxCell id="DCRlsVrrki1HG5qFUC6k-23" value="Item 1" style="text;strokeColor=none;fillColor=none;align=left;verticalAlign=top;spacingLeft=4;spacingRight=4;overflow=hidden;rotatable=0;points=[[0,0.5],[1,0.5]];portConstraint=eastwest;" vertex="1" parent="DCRlsVrrki1HG5qFUC6k-22">
          <mxGeometry y="26" width="100" height="26" as="geometry" />
        </mxCell>
        <mxCell id="DCRlsVrrki1HG5qFUC6k-24" value="Item 2" style="text;strokeColor=none;fillColor=none;align=left;verticalAlign=top;spacingLeft=4;spacingRight=4;overflow=hidden;rotatable=0;points=[[0,0.5],[1,0.5]];portConstraint=eastwest;" vertex="1" parent="DCRlsVrrki1HG5qFUC6k-22">
          <mxGeometry y="52" width="100" height="26" as="geometry" />
        </mxCell>
        <mxCell id="DCRlsVrrki1HG5qFUC6k-25" value="Item 3" style="text;strokeColor=none;fillColor=none;align=left;verticalAlign=top;spacingLeft=4;spacingRight=4;overflow=hidden;rotatable=0;points=[[0,0.5],[1,0.5]];portConstraint=eastwest;" vertex="1" parent="DCRlsVrrki1HG5qFUC6k-22">
          <mxGeometry y="78" width="100" height="26" as="geometry" />
        </mxCell>
        <mxCell id="DCRlsVrrki1HG5qFUC6k-38" style="edgeStyle=orthogonalEdgeStyle;rounded=0;orthogonalLoop=1;jettySize=auto;html=1;entryX=1;entryY=0.5;entryDx=0;entryDy=0;fontSize=12;" edge="1" parent="1" source="DCRlsVrrki1HG5qFUC6k-26" target="DCRlsVrrki1HG5qFUC6k-9">
          <mxGeometry relative="1" as="geometry">
            <Array as="points">
              <mxPoint x="630" y="360" />
            </Array>
          </mxGeometry>
        </mxCell>
        <mxCell id="DCRlsVrrki1HG5qFUC6k-26" value="Users Search &#xa;Queries" style="swimlane;fontStyle=0;childLayout=stackLayout;horizontal=1;startSize=26;fillColor=none;horizontalStack=0;resizeParent=1;resizeParentMax=0;resizeLast=0;collapsible=1;marginBottom=0;fontSize=12;" vertex="1" parent="1">
          <mxGeometry x="580" y="170" width="100" height="104" as="geometry">
            <mxRectangle x="50" y="170" width="100" height="30" as="alternateBounds" />
          </mxGeometry>
        </mxCell>
        <mxCell id="DCRlsVrrki1HG5qFUC6k-27" value="Item 1" style="text;strokeColor=none;fillColor=none;align=left;verticalAlign=top;spacingLeft=4;spacingRight=4;overflow=hidden;rotatable=0;points=[[0,0.5],[1,0.5]];portConstraint=eastwest;" vertex="1" parent="DCRlsVrrki1HG5qFUC6k-26">
          <mxGeometry y="26" width="100" height="26" as="geometry" />
        </mxCell>
        <mxCell id="DCRlsVrrki1HG5qFUC6k-28" value="Item 2" style="text;strokeColor=none;fillColor=none;align=left;verticalAlign=top;spacingLeft=4;spacingRight=4;overflow=hidden;rotatable=0;points=[[0,0.5],[1,0.5]];portConstraint=eastwest;" vertex="1" parent="DCRlsVrrki1HG5qFUC6k-26">
          <mxGeometry y="52" width="100" height="26" as="geometry" />
        </mxCell>
        <mxCell id="DCRlsVrrki1HG5qFUC6k-29" value="Item 3" style="text;strokeColor=none;fillColor=none;align=left;verticalAlign=top;spacingLeft=4;spacingRight=4;overflow=hidden;rotatable=0;points=[[0,0.5],[1,0.5]];portConstraint=eastwest;" vertex="1" parent="DCRlsVrrki1HG5qFUC6k-26">
          <mxGeometry y="78" width="100" height="26" as="geometry" />
        </mxCell>
        <mxCell id="DCRlsVrrki1HG5qFUC6k-39" style="edgeStyle=orthogonalEdgeStyle;rounded=0;orthogonalLoop=1;jettySize=auto;html=1;entryX=1;entryY=0.75;entryDx=0;entryDy=0;fontSize=12;" edge="1" parent="1" source="DCRlsVrrki1HG5qFUC6k-30" target="DCRlsVrrki1HG5qFUC6k-9">
          <mxGeometry relative="1" as="geometry">
            <Array as="points">
              <mxPoint x="760" y="380" />
            </Array>
          </mxGeometry>
        </mxCell>
        <mxCell id="DCRlsVrrki1HG5qFUC6k-30" value="Users Search &#xa;Queries" style="swimlane;fontStyle=0;childLayout=stackLayout;horizontal=1;startSize=26;fillColor=none;horizontalStack=0;resizeParent=1;resizeParentMax=0;resizeLast=0;collapsible=1;marginBottom=0;fontSize=12;" vertex="1" parent="1">
          <mxGeometry x="710" y="170" width="100" height="104" as="geometry">
            <mxRectangle x="50" y="170" width="100" height="30" as="alternateBounds" />
          </mxGeometry>
        </mxCell>
        <mxCell id="DCRlsVrrki1HG5qFUC6k-31" value="Item 1" style="text;strokeColor=none;fillColor=none;align=left;verticalAlign=top;spacingLeft=4;spacingRight=4;overflow=hidden;rotatable=0;points=[[0,0.5],[1,0.5]];portConstraint=eastwest;" vertex="1" parent="DCRlsVrrki1HG5qFUC6k-30">
          <mxGeometry y="26" width="100" height="26" as="geometry" />
        </mxCell>
        <mxCell id="DCRlsVrrki1HG5qFUC6k-32" value="Item 2" style="text;strokeColor=none;fillColor=none;align=left;verticalAlign=top;spacingLeft=4;spacingRight=4;overflow=hidden;rotatable=0;points=[[0,0.5],[1,0.5]];portConstraint=eastwest;" vertex="1" parent="DCRlsVrrki1HG5qFUC6k-30">
          <mxGeometry y="52" width="100" height="26" as="geometry" />
        </mxCell>
        <mxCell id="DCRlsVrrki1HG5qFUC6k-33" value="Item 3" style="text;strokeColor=none;fillColor=none;align=left;verticalAlign=top;spacingLeft=4;spacingRight=4;overflow=hidden;rotatable=0;points=[[0,0.5],[1,0.5]];portConstraint=eastwest;" vertex="1" parent="DCRlsVrrki1HG5qFUC6k-30">
          <mxGeometry y="78" width="100" height="26" as="geometry" />
        </mxCell>
        <mxCell id="DCRlsVrrki1HG5qFUC6k-45" value="&lt;table border=&quot;1&quot; width=&quot;100%&quot; cellpadding=&quot;4&quot; style=&quot;width: 100% ; height: 100% ; border-collapse: collapse&quot;&gt;&lt;tbody&gt;&lt;tr style=&quot;background-color: #a7c942 ; color: #ffffff ; border: 1px solid #98bf21&quot;&gt;&lt;th align=&quot;left&quot;&gt;Data 1&lt;/th&gt;&lt;th align=&quot;left&quot;&gt;Data 2&lt;/th&gt;&lt;th align=&quot;left&quot;&gt;Data 3&lt;/th&gt;&lt;/tr&gt;&lt;tr style=&quot;border: 1px solid #98bf21&quot;&gt;&lt;td&gt;Value 1&lt;/td&gt;&lt;td&gt;Value 2&lt;/td&gt;&lt;td&gt;Value 3&lt;/td&gt;&lt;/tr&gt;&lt;tr style=&quot;background-color: #eaf2d3 ; border: 1px solid #98bf21&quot;&gt;&lt;td&gt;Value 4&lt;/td&gt;&lt;td&gt;Value 5&lt;/td&gt;&lt;td&gt;Value 6&lt;/td&gt;&lt;/tr&gt;&lt;tr style=&quot;border: 1px solid #98bf21&quot;&gt;&lt;td&gt;Value 7&lt;/td&gt;&lt;td&gt;Value 8&lt;/td&gt;&lt;td&gt;Value 9&lt;/td&gt;&lt;/tr&gt;&lt;tr style=&quot;background-color: #eaf2d3 ; border: 1px solid #98bf21&quot;&gt;&lt;td&gt;Value 10&lt;/td&gt;&lt;td&gt;Value 11&lt;/td&gt;&lt;td&gt;Value 12&lt;/td&gt;&lt;/tr&gt;&lt;/tbody&gt;&lt;/table&gt;" style="text;html=1;strokeColor=#c0c0c0;fillColor=#ffffff;overflow=fill;rounded=0;fontSize=12;" vertex="1" parent="1">
          <mxGeometry x="550" y="419" width="280" height="160" as="geometry" />
        </mxCell>
        <mxCell id="DCRlsVrrki1HG5qFUC6k-42" value="Generate" style="shape=step;perimeter=stepPerimeter;fixedSize=1;points=[];" vertex="1" parent="1">
          <mxGeometry x="350" y="480" width="100" height="57" as="geometry" />
        </mxCell>
        <mxCell id="DCRlsVrrki1HG5qFUC6k-43" value="Filter" style="shape=step;perimeter=stepPerimeter;fixedSize=1;points=[];" vertex="1" parent="1">
          <mxGeometry x="440" y="480" width="100" height="57" as="geometry" />
        </mxCell>
        <mxCell id="JhlShofLQJoVNJUseuxf-1" value="&lt;b&gt;-By Abdelkarim Ben Mohammadi&lt;/b&gt;" style="text;html=1;strokeColor=none;fillColor=none;align=center;verticalAlign=middle;whiteSpace=wrap;rounded=0;fontSize=12;" vertex="1" parent="1">
          <mxGeometry x="635" y="611.5" width="200" height="20" as="geometry" />
        </mxCell>
        <mxCell id="JhlShofLQJoVNJUseuxf-2" value="&lt;b&gt;D I A G R A M&lt;/b&gt;" style="text;html=1;strokeColor=none;fillColor=none;align=center;verticalAlign=middle;whiteSpace=wrap;rounded=0;fontSize=12;" vertex="1" parent="1">
          <mxGeometry x="631" y="600" width="106" height="20" as="geometry" />
        </mxCell>
        <mxCell id="JhlShofLQJoVNJUseuxf-3" value="" style="shape=link;html=1;fontSize=12;strokeWidth=3;" edge="1" parent="1">
          <mxGeometry width="100" relative="1" as="geometry">
            <mxPoint x="727" y="609.5" as="sourcePoint" />
            <mxPoint x="827" y="609.5" as="targetPoint" />
            <Array as="points">
              <mxPoint x="777" y="609.5" />
            </Array>
          </mxGeometry>
        </mxCell>
        <mxCell id="JhlShofLQJoVNJUseuxf-4" value="" style="shape=link;html=1;fontSize=12;strokeWidth=3;" edge="1" parent="1">
          <mxGeometry width="100" relative="1" as="geometry">
            <mxPoint x="641" y="635" as="sourcePoint" />
            <mxPoint x="828" y="634.5" as="targetPoint" />
            <Array as="points">
              <mxPoint x="778" y="634.5" />
            </Array>
          </mxGeometry>
        </mxCell>
        <mxCell id="DCRlsVrrki1HG5qFUC6k-41" value="Listen" style="shape=step;perimeter=stepPerimeter;fixedSize=1;points=[];" vertex="1" parent="1">
          <mxGeometry x="265" y="480" width="100" height="57" as="geometry" />
        </mxCell>
        <mxCell id="svctMpvTDwdaj1yaQ9eG-1" value="" style="edgeStyle=orthogonalEdgeStyle;rounded=0;orthogonalLoop=1;jettySize=auto;html=1;exitX=0.5;exitY=1;exitDx=0;exitDy=0;fontSize=12;entryX=0.159;entryY=0.533;entryDx=0;entryDy=0;entryPerimeter=0;endArrow=none;" edge="1" parent="1" source="DCRlsVrrki1HG5qFUC6k-9" target="DCRlsVrrki1HG5qFUC6k-41">
          <mxGeometry relative="1" as="geometry">
            <mxPoint x="365.9000000000001" y="510.381" as="targetPoint" />
            <mxPoint x="425" y="400" as="sourcePoint" />
            <Array as="points">
              <mxPoint x="425" y="420" />
            </Array>
          </mxGeometry>
        </mxCell>
      </root>
    </mxGraphModel>
  </diagram>
  <diagram id="e71NrAcbBqC2749OvfNQ" name="Page-2">
    <mxGraphModel dx="1280" dy="486" grid="1" gridSize="10" guides="1" tooltips="1" connect="1" arrows="1" fold="1" page="1" pageScale="1" pageWidth="850" pageHeight="1100" math="0" shadow="0">
      <root>
        <mxCell id="xHVDm8A1EgF2GXTkSJV7-0" />
        <mxCell id="xHVDm8A1EgF2GXTkSJV7-1" parent="xHVDm8A1EgF2GXTkSJV7-0" />
        <mxCell id="AXFVDYpi3fbshtIIkMkB-0" value="Listen" style="shape=parallelogram;perimeter=parallelogramPerimeter;whiteSpace=wrap;html=1;fixedSize=1;fontSize=12;fillColor=#f8cecc;strokeColor=#b85450;" vertex="1" parent="xHVDm8A1EgF2GXTkSJV7-1">
          <mxGeometry x="220" y="180" width="120" height="60" as="geometry" />
        </mxCell>
        <mxCell id="AXFVDYpi3fbshtIIkMkB-1" value="Generate" style="shape=parallelogram;perimeter=parallelogramPerimeter;whiteSpace=wrap;html=1;fixedSize=1;fontSize=12;fillColor=#dae8fc;strokeColor=#6c8ebf;" vertex="1" parent="xHVDm8A1EgF2GXTkSJV7-1">
          <mxGeometry x="340" y="180" width="120" height="60" as="geometry" />
        </mxCell>
        <mxCell id="AXFVDYpi3fbshtIIkMkB-2" value="Analyse" style="shape=parallelogram;perimeter=parallelogramPerimeter;whiteSpace=wrap;html=1;fixedSize=1;fontSize=12;fillColor=#d5e8d4;strokeColor=#82b366;" vertex="1" parent="xHVDm8A1EgF2GXTkSJV7-1">
          <mxGeometry x="460" y="180" width="120" height="60" as="geometry" />
        </mxCell>
        <mxCell id="AXFVDYpi3fbshtIIkMkB-3" value="Raw&lt;br&gt;Data" style="shape=card;whiteSpace=wrap;html=1;fontSize=12;fillColor=#f8cecc;strokeColor=#b85450;" vertex="1" parent="xHVDm8A1EgF2GXTkSJV7-1">
          <mxGeometry x="230" y="250" width="80" height="100" as="geometry" />
        </mxCell>
        <mxCell id="AXFVDYpi3fbshtIIkMkB-4" value="Clean&lt;br&gt;Data" style="shape=card;whiteSpace=wrap;html=1;fontSize=12;fillColor=#dae8fc;strokeColor=#6c8ebf;" vertex="1" parent="xHVDm8A1EgF2GXTkSJV7-1">
          <mxGeometry x="345" y="250" width="80" height="100" as="geometry" />
        </mxCell>
        <mxCell id="AXFVDYpi3fbshtIIkMkB-5" value="&lt;b&gt;Profitable&lt;br&gt;Data&lt;/b&gt;" style="shape=card;whiteSpace=wrap;html=1;fontSize=12;fillColor=#d5e8d4;strokeColor=#82b366;" vertex="1" parent="xHVDm8A1EgF2GXTkSJV7-1">
          <mxGeometry x="470" y="250" width="80" height="100" as="geometry" />
        </mxCell>
        <mxCell id="AXFVDYpi3fbshtIIkMkB-6" value="" style="endArrow=classic;html=1;fontSize=12;strokeWidth=3;" edge="1" parent="xHVDm8A1EgF2GXTkSJV7-1">
          <mxGeometry width="50" height="50" relative="1" as="geometry">
            <mxPoint x="200" y="380" as="sourcePoint" />
            <mxPoint x="616" y="380" as="targetPoint" />
            <Array as="points" />
          </mxGeometry>
        </mxCell>
        <mxCell id="AXFVDYpi3fbshtIIkMkB-7" value="&lt;b&gt;Data Process for Profits&lt;/b&gt;" style="text;html=1;strokeColor=none;fillColor=none;align=center;verticalAlign=middle;whiteSpace=wrap;rounded=0;fontSize=12;" vertex="1" parent="xHVDm8A1EgF2GXTkSJV7-1">
          <mxGeometry x="330" y="390" width="140" height="20" as="geometry" />
        </mxCell>
        <mxCell id="AXFVDYpi3fbshtIIkMkB-9" value="" style="shape=image;html=1;verticalAlign=top;verticalLabelPosition=bottom;labelBackgroundColor=#ffffff;imageAspect=0;aspect=fixed;image=https://cdn2.iconfinder.com/data/icons/sale-and-discount/32/Sale_and_Discount-01-128.png;fontSize=12;" vertex="1" parent="xHVDm8A1EgF2GXTkSJV7-1">
          <mxGeometry x="366" y="410" width="59" height="59" as="geometry" />
        </mxCell>
        <mxCell id="AXFVDYpi3fbshtIIkMkB-10" value="" style="aspect=fixed;html=1;points=[];align=center;image;fontSize=12;image=img/lib/mscae/Cognitive_Services.svg;" vertex="1" parent="xHVDm8A1EgF2GXTkSJV7-1">
          <mxGeometry x="320" y="129" width="50" height="30" as="geometry" />
        </mxCell>
        <mxCell id="AXFVDYpi3fbshtIIkMkB-11" value="" style="aspect=fixed;html=1;points=[];align=center;image;fontSize=12;image=img/lib/azure2/ai_machine_learning/Cognitive_Services.svg;" vertex="1" parent="xHVDm8A1EgF2GXTkSJV7-1">
          <mxGeometry x="497" y="114" width="68" height="48" as="geometry" />
        </mxCell>
        <mxCell id="AXFVDYpi3fbshtIIkMkB-12" value="" style="shape=curlyBracket;whiteSpace=wrap;html=1;rounded=1;fontSize=12;rotation=90;" vertex="1" parent="xHVDm8A1EgF2GXTkSJV7-1">
          <mxGeometry x="335" y="110" width="20" height="120" as="geometry" />
        </mxCell>
        <mxCell id="AXFVDYpi3fbshtIIkMkB-13" value="" style="shape=curlyBracket;whiteSpace=wrap;html=1;rounded=1;fontSize=12;rotation=90;" vertex="1" parent="xHVDm8A1EgF2GXTkSJV7-1">
          <mxGeometry x="520" y="140" width="20" height="60" as="geometry" />
        </mxCell>
        <mxCell id="AXFVDYpi3fbshtIIkMkB-14" value="KeyGenius" style="text;strokeColor=none;fillColor=none;html=1;fontSize=24;fontStyle=1;verticalAlign=middle;align=center;" vertex="1" parent="xHVDm8A1EgF2GXTkSJV7-1">
          <mxGeometry x="295" y="89" width="100" height="40" as="geometry" />
        </mxCell>
        <mxCell id="AXFVDYpi3fbshtIIkMkB-15" value="KeyGold" style="text;strokeColor=none;fillColor=none;html=1;fontSize=24;fontStyle=1;verticalAlign=middle;align=center;" vertex="1" parent="xHVDm8A1EgF2GXTkSJV7-1">
          <mxGeometry x="481" y="74" width="100" height="40" as="geometry" />
        </mxCell>
        <mxCell id="VHeOFyQjHtXz449jU8nb-0" value="Autopilote&lt;br&gt;DATA&lt;br&gt;Listner / Generator" style="text;html=1;strokeColor=none;fillColor=none;align=center;verticalAlign=middle;whiteSpace=wrap;rounded=0;fontSize=12;" vertex="1" parent="xHVDm8A1EgF2GXTkSJV7-1">
          <mxGeometry x="290" y="65" width="110" height="20" as="geometry" />
        </mxCell>
        <mxCell id="VHeOFyQjHtXz449jU8nb-1" value="Autopilote&lt;br&gt;DATA&lt;br&gt;Analyser" style="text;html=1;strokeColor=none;fillColor=none;align=center;verticalAlign=middle;whiteSpace=wrap;rounded=0;fontSize=12;" vertex="1" parent="xHVDm8A1EgF2GXTkSJV7-1">
          <mxGeometry x="476" y="52" width="110" height="20" as="geometry" />
        </mxCell>
        <mxCell id="VHeOFyQjHtXz449jU8nb-2" value="" style="shape=image;html=1;verticalAlign=top;verticalLabelPosition=bottom;labelBackgroundColor=#ffffff;imageAspect=0;aspect=fixed;image=https://cdn0.iconfinder.com/data/icons/security-double-color-red-and-black-vol-4/52/spy__person__agent__security-128.png;fontSize=12;" vertex="1" parent="xHVDm8A1EgF2GXTkSJV7-1">
          <mxGeometry x="267" y="177" width="28" height="28" as="geometry" />
        </mxCell>
        <mxCell id="VHeOFyQjHtXz449jU8nb-4" value="" style="html=1;aspect=fixed;strokeColor=none;shadow=0;align=center;verticalAlign=top;fillColor=#3B8DF1;shape=mxgraph.gcp2.gear_chain;fontSize=12;" vertex="1" parent="xHVDm8A1EgF2GXTkSJV7-1">
          <mxGeometry x="391" y="176" width="29" height="29" as="geometry" />
        </mxCell>
        <mxCell id="VHeOFyQjHtXz449jU8nb-5" value="" style="shape=image;html=1;verticalAlign=top;verticalLabelPosition=bottom;labelBackgroundColor=#ffffff;imageAspect=0;aspect=fixed;image=https://cdn4.iconfinder.com/data/icons/heads-5/100/p-_profile_-_analyse-128.png;fontSize=12;" vertex="1" parent="xHVDm8A1EgF2GXTkSJV7-1">
          <mxGeometry x="511" y="172" width="38" height="38" as="geometry" />
        </mxCell>
        <mxCell id="VHeOFyQjHtXz449jU8nb-6" value="" style="shape=image;html=1;verticalAlign=top;verticalLabelPosition=bottom;labelBackgroundColor=#ffffff;imageAspect=0;aspect=fixed;image=https://cdn4.iconfinder.com/data/icons/business-solid-the-capitalism/64/Investment-128.png;fontSize=12;" vertex="1" parent="xHVDm8A1EgF2GXTkSJV7-1">
          <mxGeometry x="574" y="262" width="128" height="128" as="geometry" />
        </mxCell>
        <mxCell id="nZFugS0z3_BFNBwq8rOJ-0" value="&lt;b&gt;-By Abdelkarim Ben Mohammadi&lt;/b&gt;" style="text;html=1;strokeColor=none;fillColor=none;align=center;verticalAlign=middle;whiteSpace=wrap;rounded=0;fontSize=12;" vertex="1" parent="xHVDm8A1EgF2GXTkSJV7-1">
          <mxGeometry x="454" y="471.5" width="200" height="20" as="geometry" />
        </mxCell>
        <mxCell id="EIYZPsubjXynRXGem2ig-0" value="&lt;b&gt;D I A G R A M&lt;/b&gt;" style="text;html=1;strokeColor=none;fillColor=none;align=center;verticalAlign=middle;whiteSpace=wrap;rounded=0;fontSize=12;" vertex="1" parent="xHVDm8A1EgF2GXTkSJV7-1">
          <mxGeometry x="450" y="460" width="106" height="20" as="geometry" />
        </mxCell>
        <mxCell id="EIYZPsubjXynRXGem2ig-1" value="" style="shape=link;html=1;fontSize=12;strokeWidth=3;" edge="1" parent="xHVDm8A1EgF2GXTkSJV7-1">
          <mxGeometry width="100" relative="1" as="geometry">
            <mxPoint x="546" y="469.5" as="sourcePoint" />
            <mxPoint x="646" y="469.5" as="targetPoint" />
            <Array as="points">
              <mxPoint x="596" y="469.5" />
            </Array>
          </mxGeometry>
        </mxCell>
        <mxCell id="EIYZPsubjXynRXGem2ig-2" value="" style="shape=link;html=1;fontSize=12;strokeWidth=3;" edge="1" parent="xHVDm8A1EgF2GXTkSJV7-1">
          <mxGeometry width="100" relative="1" as="geometry">
            <mxPoint x="460" y="495" as="sourcePoint" />
            <mxPoint x="647" y="494.5" as="targetPoint" />
            <Array as="points">
              <mxPoint x="597" y="494.5" />
            </Array>
          </mxGeometry>
        </mxCell>
      </root>
    </mxGraphModel>
  </diagram>
</mxfile>
